<svg
  width="inherit"
  height="inherit"
  viewBox="0 0 24 24"
  fill="currentColor"
  xmlns="http://www.w3.org/2000/svg"
>
  <path
    fill-rule="evenodd"
    clip-rule="evenodd"
    d="M15.23 20.403C16.729 19.8256 18.0464 18.8579 19.0458 17.6003C20.0451 16.3426 20.6901 14.8407 20.914 13.25H16.972C16.825 16.11 16.179 18.638 15.231 20.403H15.23ZM14.473 13.25C14.295 17.352 13.256 20.5 12 20.5C10.744 20.5 9.705 17.352 9.527 13.25H14.473ZM14.473 10.75H9.527C9.705 6.648 10.744 3.5 12 3.5C13.256 3.5 14.295 6.648 14.473 10.75ZM16.972 10.75H20.914C20.6903 9.15938 20.0455 7.65747 19.0463 6.39981C18.0471 5.14215 16.7299 4.17448 15.231 3.597C16.179 5.362 16.825 7.89 16.972 10.75ZM7.036 10.75C7.183 7.888 7.829 5.358 8.779 3.594C7.27786 4.17028 5.95828 5.13778 4.95721 6.3961C3.95614 7.65443 3.31006 9.15773 3.086 10.75H7.036ZM7.036 13.25H3.086C3.30989 14.8424 3.9559 16.346 4.95698 17.6045C5.95806 18.863 7.27772 19.8306 8.779 20.407C7.829 18.642 7.183 16.112 7.036 13.25Z"
    fill="currentColor"></path>
</svg>
