<?xml version="1.0" standalone="no"?>
<!DOCTYPE svg PUBLIC "-//W3C//DTD SVG 20010904//EN"
 "http://www.w3.org/TR/2001/REC-SVG-20010904/DTD/svg10.dtd">
<svg version="1.0" xmlns="http://www.w3.org/2000/svg"
 width="700.000000pt" height="700.000000pt" viewBox="0 0 700.000000 700.000000"
 preserveAspectRatio="xMidYMid meet">
<metadata>
Created by potrace 1.14, written by Peter Selinger 2001-2017
</metadata>
<g transform="translate(0.000000,700.000000) scale(0.100000,-0.100000)"
fill="#000000" stroke="none">
<path d="M2330 4808 c-11 -18 -21 -36 -22 -40 -3 -7 -23 -11 -178 -34 -314
-46 -660 -166 -908 -316 -140 -85 -231 -157 -362 -288 -126 -126 -219 -251
-285 -385 -71 -143 -98 -248 -99 -385 -1 -120 5 -164 33 -248 72 -213 220
-350 431 -400 38 -9 70 -20 70 -24 0 -4 -17 -34 -37 -65 -45 -69 -58 -91 -74
-119 -10 -20 -19 -21 -113 -21 l-101 1 -1 -62 c-1 -51 2 -62 15 -63 20 -1 461
-1 479 0 8 1 12 20 12 61 0 41 -4 60 -12 61 -7 1 -43 1 -80 1 l-66 0 39 62
c21 33 48 78 59 98 11 20 23 39 27 41 5 3 39 8 78 12 38 4 72 8 75 10 3 1 26
6 51 9 85 11 413 108 514 151 17 7 66 27 110 45 116 47 374 176 450 226 23 15
23 14 29 -23 4 -21 8 -58 11 -83 2 -25 6 -61 9 -80 3 -19 8 -57 11 -85 4 -27
8 -63 10 -80 17 -119 35 -272 35 -286 0 -15 -12 -17 -82 -17 -46 0 -91 0 -100
-1 -15 -1 -18 -11 -18 -61 0 -50 3 -60 18 -61 9 0 166 -1 347 -1 295 0 440 5
485 17 8 2 33 6 55 10 22 3 66 13 99 21 479 124 825 512 964 1081 24 102 29
113 50 113 12 0 22 -5 22 -11 0 -9 -25 -156 -45 -269 -3 -14 -12 -63 -20 -110
-8 -47 -17 -96 -20 -110 -2 -14 -16 -90 -30 -170 -14 -80 -32 -181 -40 -225
-8 -44 -18 -99 -21 -123 -14 -100 -10 -97 -105 -99 -46 0 -91 -2 -99 -2 -12
-1 -15 -13 -13 -58 2 -31 5 -58 8 -61 9 -10 685 -7 686 3 7 79 3 115 -11 116
-8 1 -54 1 -102 1 -61 1 -88 4 -88 13 0 9 54 318 105 605 3 14 12 66 20 115 9
50 18 101 20 115 3 14 15 80 27 148 20 112 23 122 43 122 22 0 22 -1 9 -56
-12 -53 -16 -77 -34 -209 -5 -33 -7 -125 -5 -205 6 -214 46 -354 143 -497 37
-54 122 -141 159 -161 12 -7 -9 -34 -109 -133 -162 -162 -249 -265 -381 -455
l-57 -81 49 -31 c27 -18 51 -32 54 -32 2 0 43 54 90 119 48 65 113 153 147
194 67 83 232 253 304 311 42 35 48 37 78 27 125 -39 344 -47 485 -17 157 34
312 104 433 195 83 63 215 199 277 287 l22 30 -162 -2 c-89 -1 -196 -4 -237
-8 -158 -15 -403 -79 -524 -137 -22 -10 -43 -19 -47 -19 -10 0 -167 -88 -216
-121 l-42 -28 -35 43 c-80 97 -118 231 -119 426 -1 112 10 317 18 330 2 3 6
30 10 60 5 44 34 190 60 301 9 40 46 152 76 229 93 242 254 459 418 565 160
102 323 138 503 109 128 -20 177 -73 182 -194 5 -103 -51 -297 -120 -417 l-25
-43 156 0 155 0 0 25 c0 22 3 24 18 16 29 -15 41 0 62 85 74 285 -30 524 -267
617 -77 30 -180 44 -303 41 -233 -6 -405 -62 -588 -191 -224 -158 -435 -450
-551 -763 -29 -77 -35 -86 -57 -86 -27 0 -27 7 -9 104 1 10 6 37 10 62 4 25 9
54 11 65 2 11 18 97 34 190 17 94 33 181 35 195 5 24 45 254 49 275 4 27 20
31 115 30 l101 -1 0 63 0 63 -348 0 -348 0 1 -62 0 -63 85 -1 c115 -2 109 0
104 -31 -4 -25 -23 -129 -39 -218 -3 -16 -17 -95 -31 -175 -14 -80 -27 -156
-30 -170 -2 -14 -16 -88 -29 -165 -30 -167 -29 -164 -52 -161 -15 3 -18 12
-16 57 11 292 -4 420 -65 564 -106 247 -290 381 -567 412 -219 25 -420 -14
-615 -118 -173 -93 -320 -235 -467 -451 -22 -32 -23 -32 -24 -8 0 14 -2 32 -4
41 -1 8 -6 42 -9 75 -7 56 -10 83 -20 157 -3 17 -8 55 -11 82 -3 28 -7 66 -10
85 -3 19 -7 60 -11 90 -3 30 -8 59 -11 63 -5 9 -170 0 -185 -9 -7 -5 -12 26
-11 64 1 19 -6 14 -27 -20z m1384 -186 c6 -10 -103 -194 -182 -307 -64 -91
-223 -293 -272 -345 -186 -197 -293 -299 -429 -408 -57 -46 -106 -81 -109 -77
-7 6 -9 18 -17 95 -3 30 -8 66 -10 80 -2 14 -7 50 -10 80 -3 30 -8 66 -10 80
-17 117 -17 117 20 191 81 160 205 310 347 417 151 114 276 165 478 196 50 7
189 6 194 -2z m-1670 -248 c-81 -131 -166 -270 -189 -309 -24 -38 -131 -214
-239 -390 -107 -176 -269 -440 -358 -587 -90 -146 -170 -268 -178 -270 -8 -2
-46 2 -85 9 -353 65 -502 465 -316 847 67 137 129 222 270 369 261 272 615
448 1096 546 77 16 141 27 143 26 1 -1 -64 -110 -144 -241z m1868 154 c101
-100 140 -224 144 -453 1 -82 -2 -179 -6 -215 -4 -36 -11 -90 -14 -121 -4 -31
-8 -65 -10 -75 -2 -11 -7 -39 -12 -64 -4 -25 -8 -47 -9 -50 -1 -3 -5 -25 -10
-50 -5 -25 -9 -47 -10 -50 -1 -3 -5 -18 -9 -35 -58 -228 -167 -448 -296 -599
-44 -51 -165 -150 -236 -192 -70 -41 -207 -98 -260 -109 -97 -18 -167 -26
-250 -29 -90 -4 -94 -3 -95 18 0 11 -2 30 -4 41 -2 11 -7 46 -11 77 -3 32 -7
68 -9 80 -2 13 -6 48 -10 78 -3 30 -8 66 -10 80 -2 14 -6 48 -10 75 -3 28 -8
66 -10 85 -2 19 -7 60 -11 90 -3 30 -8 63 -9 72 -2 9 -7 47 -10 83 -7 62 -6
68 16 83 104 72 302 244 439 382 237 237 423 474 576 735 37 63 71 115 75 115
4 0 32 -24 61 -52z m-1608 -153 c4 -33 11 -87 16 -120 5 -33 12 -89 15 -125 4
-36 8 -72 10 -80 2 -8 6 -44 10 -80 4 -36 8 -67 10 -70 1 -3 6 -36 10 -73 3
-37 8 -76 10 -85 1 -9 6 -44 9 -77 4 -33 9 -67 11 -75 2 -8 6 -46 10 -83 3
-37 8 -76 10 -85 1 -9 6 -45 10 -78 l7 -61 -104 -60 c-248 -142 -511 -254
-786 -334 -100 -29 -302 -73 -308 -67 -1 2 83 143 188 313 104 171 253 414
331 540 77 127 168 275 202 330 34 55 113 183 175 285 62 102 119 196 128 210
l16 25 7 -45 c4 -25 10 -72 13 -105z m3756 -1623 c0 -23 -201 -155 -291 -192
-132 -55 -361 -86 -475 -64 l-36 7 29 19 c152 103 449 204 661 224 37 4 68 7
69 8 5 4 43 1 43 -2z"/>
</g>
</svg>
