<svg width="120" height="120" viewBox="0 0 120 120" fill="none" xmlns="http://www.w3.org/2000/svg">
<g style="mix-blend-mode:difference">
<path d="M109.914 50.8583C112.348 44.4355 109.328 40.2485 104.781 39.4413C104.781 39.4413 104.368 39.3775 104.206 39.36C103.428 39.2671 102.591 39.2323 101.842 39.2323C96.5404 39.2323 92.0398 41.3751 88.3348 45.6551C85.437 49.0058 83.3813 52.8153 82.1385 57.0662H79.3975L82.5218 39.4472H86.0003V39.1568H75.919V39.4472H79.4324L76.3081 57.0662H73.5961L73.6426 56.7933C73.7529 56.1893 73.8633 55.2776 73.9736 54.0581C74.3046 49.5865 73.4626 45.9919 71.4475 43.2857C69.4266 40.5796 66.2384 39.2265 61.8772 39.2265C56.1861 39.3368 51.5346 41.8397 47.7773 46.59L47.7831 46.5958C46.4997 48.1696 45.4312 49.9001 44.5717 51.7352L42.9806 39C34.0607 39.7317 22.7657 41.7236 14.5079 50.7247C11.4126 54.0987 9.60077 57.5366 9.11877 60.9512C8.52644 65.144 10.1873 69.3252 13.2593 71.3577C15.0073 72.5134 17.0166 72.9373 19.0084 72.9721L15.7041 78.367H12.6263V78.6574H19.4672V78.367H16.041L19.3394 72.9779C21.5172 72.9721 23.6542 72.525 25.3906 72.072C31.581 70.475 37.4928 67.8792 42.9051 64.4762L44.653 78.3612H41.0526V78.6516H50.7158C62.1792 78.6225 70.106 71.9326 73.0735 59.5865C73.1141 59.4123 73.1548 59.2381 73.1954 59.0581C73.3232 58.5006 73.4393 57.9315 73.5497 57.3449H76.2616L72.5392 78.3612H69.2814V78.6516H79.3627V78.3612H75.6228L79.3511 57.3449H82.0688C81.7669 58.4309 81.4997 59.5343 81.3023 60.6783L81.2152 61.1777C81.1048 61.7875 80.9945 62.6934 80.8842 63.9129C80.5532 68.3844 81.3952 71.9791 83.4103 74.6853C84.3859 75.9919 85.6461 76.9791 87.1734 77.6585C83.6716 80.3473 80.4254 83.9477 77.0921 88.8374L77.3302 89C80.0712 84.9814 83.2767 80.9396 87.4405 77.7747C89.0084 78.4193 90.8493 78.7445 92.9748 78.7445C98.6658 78.6341 103.387 76.2009 107.144 71.4506C100.24 71.2532 94.3395 72.8328 89.0723 76.2938C88.7123 76.5319 88.3522 76.7817 87.998 77.0372C85.1873 75.1614 83.991 71.1951 84.4149 65.3182C84.6937 61.0093 85.4544 56.9907 86.6914 53.2625C87.9341 49.5343 89.7982 46.3461 92.2837 43.6922C94.7692 41.0441 98.4974 39.4297 101.761 39.4297C102.772 39.4297 103.677 39.5343 104.479 39.6736C111.308 40.8699 106.128 50.8467 106.128 50.8467H109.914V50.8583ZM13.4161 71.1196C10.437 69.1452 8.82841 65.0801 9.40333 60.9977C9.87952 57.6411 11.6681 54.2555 14.7227 50.9222C18.7065 46.5842 25.0944 41.4971 39.4091 39.6678L19.1827 72.6876C17.1792 72.676 15.1583 72.2753 13.4161 71.1196ZM25.3209 71.7991C23.6542 72.2288 21.6043 72.6643 19.5195 72.6934L39.7518 39.6678L39.7982 39.9872L41.6856 54.8246V54.8362L42.4173 60.6202L42.4753 61.0732H42.4811L42.8702 64.1684C37.4521 67.5888 31.523 70.1963 25.3209 71.7991ZM44.6414 52.2811C45.5299 50.295 46.6623 48.4251 48.0444 46.741H48.0502C49.653 44.6969 51.703 43.0767 54.0549 41.7178C56.401 40.3647 59.7053 39.6852 62.2431 39.6852C63.3464 39.6852 64.3336 39.8362 65.2105 40.1324C60.6345 48.8664 53.9097 56.4332 45.8725 62.1533L44.6414 52.2811ZM70.4428 52.6527C70.1989 56.4042 69.5892 59.9408 68.6194 63.2509C66.854 69.1161 64.0955 72.5308 61.1397 74.7433C56.7843 78.007 52.5508 78.338 48.9155 78.367H47.9051L45.9132 62.4785C54.0491 56.712 60.8609 49.0639 65.4835 40.2311C69.2698 41.6655 70.9306 45.899 70.4428 52.6527ZM106.25 71.741C104.74 73.5296 102.928 75.0395 100.809 76.2648C98.4626 77.6179 95.1583 78.2973 92.6205 78.2973C90.89 78.2973 89.4382 77.9199 88.2477 77.1998C92.8819 73.8897 98.6832 71.6887 106.25 71.741Z" fill="#CBBA9E"/>
</g>
</svg>
